<svg width="407" height="129" viewBox="0 0 407 129" fill="none" xmlns="http://www.w3.org/2000/svg">
<path d="M37.9487 110L1.95766 34.277H20.0177L44.2697 86.522L47.7527 95.81H48.9137L52.2677 86.522L76.7777 34.277H94.3217L92.2577 42.017L58.5887 110H37.9487ZM100.814 110V34.148H117.842V110H100.814ZM155.638 110C149.532 110 144.759 109.14 141.319 107.42C137.879 105.7 135.471 103.12 134.095 99.68C132.719 96.24 132.031 91.983 132.031 86.909V58.142C132.031 49.886 133.88 43.823 137.578 39.953C141.276 35.997 147.296 34.019 155.638 34.019H194.467C200.401 34.019 204.916 34.363 208.012 35.051C211.194 35.653 212.785 36.298 212.785 36.986L210.205 47.693C208.743 47.435 204.4 47.177 197.176 46.919C190.038 46.575 179.632 46.403 165.958 46.403H159.379C152.499 46.403 149.059 49.456 149.059 55.562V88.457C149.059 91.381 149.79 93.66 151.252 95.294C152.8 96.842 155.509 97.616 159.379 97.616H164.668C178.944 97.616 189.995 97.487 197.821 97.229C205.733 96.885 210.635 96.541 212.527 96.197L217.816 104.711C217.816 105.141 217.085 105.786 215.623 106.646C214.247 107.506 211.667 108.28 207.883 108.968C204.099 109.656 198.638 110 191.5 110H155.638ZM244.633 111.29C236.807 111.29 231.346 109.183 228.25 104.969C225.154 100.755 223.606 95.165 223.606 88.199V34.148H240.634V88.715C240.634 92.757 241.623 95.466 243.601 96.842C245.579 98.218 248.03 98.906 250.954 98.906H278.302C281.054 98.906 283.462 98.218 285.526 96.842C287.59 95.38 288.622 92.671 288.622 88.715V34.148H305.65V88.199C305.65 92.843 305.005 96.885 303.715 100.325C302.425 103.765 300.275 106.474 297.265 108.452C294.255 110.344 290.084 111.29 284.752 111.29H244.633ZM333.594 110C327.746 110 323.446 109.742 320.694 109.226C317.942 108.71 316.566 108.108 316.566 107.42L321.726 96.197C323.704 96.541 328.606 96.885 336.432 97.229C344.344 97.487 355.18 97.616 368.94 97.616H371.391C375.089 97.616 377.712 96.971 379.26 95.681C380.808 94.305 381.582 92.026 381.582 88.844V86.264C381.582 83.254 380.937 81.104 379.647 79.814C378.443 78.524 375.691 77.879 371.391 77.879H341.463C332.777 77.879 326.456 76.288 322.5 73.106C318.544 69.838 316.566 64.549 316.566 57.239V55.175C316.566 51.391 317.254 47.908 318.63 44.726C320.092 41.544 322.543 39.007 325.983 37.115C329.423 35.137 334.153 34.148 340.173 34.148H375.261C381.109 34.148 385.839 34.449 389.451 35.051C393.063 35.653 394.869 36.298 394.869 36.986L392.289 47.822C390.053 47.564 384.979 47.306 377.067 47.048C369.155 46.704 358.534 46.532 345.204 46.532L343.785 46.403C339.829 46.403 337.163 47.22 335.787 48.854C334.411 50.402 333.68 52.38 333.594 54.788V56.981C333.594 59.819 334.368 61.969 335.916 63.431C337.55 64.807 340.216 65.495 343.914 65.495H372.552C378.056 65.495 382.743 66.054 386.613 67.172C390.483 68.29 393.45 70.354 395.514 73.364C397.578 76.288 398.61 80.631 398.61 86.393V88.457C398.61 94.907 396.933 100.11 393.579 104.066C390.311 108.022 384.592 110 376.422 110H333.594Z" fill="white"/>
</svg>
